solid cylinder
  facet normal 9.990482e-01 4.361939e-02 0.000000e+00
    outer loop
      vertex 2.500000e-02 1.000000e-03 0.000000e+00
      vertex 2.490487e-02 3.178894e-03 0.000000e+00
      vertex 2.490487e-02 3.178894e-03 1.000000e-03
    endloop
  endfacet
  facet normal 9.990482e-01 4.361939e-02 -0.000000e+00
    outer loop
      vertex 2.500000e-02 1.000000e-03 0.000000e+00
      vertex 2.490487e-02 3.178894e-03 1.000000e-03
      vertex 2.500000e-02 1.000000e-03 1.000000e-03
    endloop
  endfacet
  facet normal 0.000000e+00 0.000000e+00 -1.000000e+00
    outer loop
      vertex 0.000000e+00 1.000000e-03 0.000000e+00
      vertex 2.490487e-02 3.178894e-03 0.000000e+00
      vertex 2.500000e-02 1.000000e-03 0.000000e+00
    endloop
  endfacet
  facet normal 0.000000e+00 0.000000e+00 1.000000e+00
    outer loop
      vertex 0.000000e+00 1.000000e-03 1.000000e-03
      vertex 2.500000e-02 1.000000e-03 1.000000e-03
      vertex 2.490487e-02 3.178894e-03 1.000000e-03
    endloop
  endfacet
  facet normal 9.914449e-01 1.305262e-01 0.000000e+00
    outer loop
      vertex 2.490487e-02 3.178894e-03 0.000000e+00
      vertex 2.462019e-02 5.341204e-03 0.000000e+00
      vertex 2.462019e-02 5.341204e-03 1.000000e-03
    endloop
  endfacet
  facet normal 9.914449e-01 1.305262e-01 -0.000000e+00
    outer loop
      vertex 2.490487e-02 3.178894e-03 0.000000e+00
      vertex 2.462019e-02 5.341204e-03 1.000000e-03
      vertex 2.490487e-02 3.178894e-03 1.000000e-03
    endloop
  endfacet
  facet normal 0.000000e+00 0.000000e+00 -1.000000e+00
    outer loop
      vertex 0.000000e+00 1.000000e-03 0.000000e+00
      vertex 2.462019e-02 5.341204e-03 0.000000e+00
      vertex 2.490487e-02 3.178894e-03 0.000000e+00
    endloop
  endfacet
  facet normal 0.000000e+00 0.000000e+00 1.000000e+00
    outer loop
      vertex 0.000000e+00 1.000000e-03 1.000000e-03
      vertex 2.490487e-02 3.178894e-03 1.000000e-03
      vertex 2.462019e-02 5.341204e-03 1.000000e-03
    endloop
  endfacet
  facet normal 9.762960e-01 2.164396e-01 0.000000e+00
    outer loop
      vertex 2.462019e-02 5.341204e-03 0.000000e+00
      vertex 2.414815e-02 7.470476e-03 0.000000e+00
      vertex 2.414815e-02 7.470476e-03 1.000000e-03
    endloop
  endfacet
  facet normal 9.762960e-01 2.164396e-01 -0.000000e+00
    outer loop
      vertex 2.462019e-02 5.341204e-03 0.000000e+00
      vertex 2.414815e-02 7.470476e-03 1.000000e-03
      vertex 2.462019e-02 5.341204e-03 1.000000e-03
    endloop
  endfacet
  facet normal 0.000000e+00 0.000000e+00 -1.000000e+00
    outer loop
      vertex 0.000000e+00 1.000000e-03 0.000000e+00
      vertex 2.414815e-02 7.470476e-03 0.000000e+00
      vertex 2.462019e-02 5.341204e-03 0.000000e+00
    endloop
  endfacet
  facet normal 0.000000e+00 0.000000e+00 1.000000e+00
    outer loop
      vertex 0.000000e+00 1.000000e-03 1.000000e-03
      vertex 2.462019e-02 5.341204e-03 1.000000e-03
      vertex 2.414815e-02 7.470476e-03 1.000000e-03
    endloop
  endfacet
endsolid cylinder
